<svg width="20" height="20" viewBox="0 0 20 20" fill="none" xmlns="http://www.w3.org/2000/svg">
    <path fill-rule="evenodd" clip-rule="evenodd" d="M6 2.875C6 1.83938 6.83938 1 7.875 1H11.625C12.6606 1 13.5 1.83938 13.5 2.875V3.5H17.875C18.22 3.5 18.5 3.78 18.5 4.125C18.5 4.47 18.22 4.75 17.875 4.75H16.625V15.375C16.625 17.1006 15.2256 18.5 13.5 18.5H6C4.27437 18.5 2.875 17.1006 2.875 15.375V4.75H1.625C1.28 4.75 1 4.47 1 4.125C1 3.78 1.28 3.5 1.625 3.5H6V2.875ZM7.25 3.5H12.25V2.875C12.25 2.53 11.97 2.25 11.625 2.25H7.875C7.53 2.25 7.25 2.53 7.25 2.875V3.5ZM4.125 4.75V15.375C4.125 16.4106 4.96438 17.25 6 17.25H13.5C14.5356 17.25 15.375 16.4106 15.375 15.375V4.75H4.125ZM9.75 6.625C10.095 6.625 10.375 6.905 10.375 7.25V14.75C10.375 15.095 10.095 15.375 9.75 15.375C9.405 15.375 9.125 15.095 9.125 14.75V7.25C9.125 6.905 9.405 6.625 9.75 6.625Z" fill="white"/>
</svg>
