<svg width="20" height="20" viewBox="0 0 20 20" fill="none" xmlns="http://www.w3.org/2000/svg">
    <path d="M14.2043 7.92932C14.4412 7.67807 14.4299 7.28245 14.1793 7.04557C13.9281 6.8087 13.5324 6.81993 13.2956 7.07056L9.02742 11.5874L6.70431 9.12931C6.46743 8.87869 6.07181 8.86745 5.82056 9.10433C5.56993 9.3412 5.5587 9.73683 5.79557 9.98808L8.57305 12.9312C8.69118 13.0562 8.85555 13.1249 9.02742 13.1249C9.19992 13.1249 9.36433 13.0562 9.48183 12.9312L14.2043 7.92932Z" fill="white"/>
    <path fill-rule="evenodd" clip-rule="evenodd" d="M9.75 1C4.9175 1 1 4.9175 1 9.75C1 14.5813 4.9175 18.5 9.75 18.5C14.5825 18.5 18.5 14.5813 18.5 9.75C18.5 4.9175 14.5825 1 9.75 1ZM2.25 9.75C2.25 5.60813 5.60813 2.25 9.75 2.25C13.8919 2.25 17.25 5.60813 17.25 9.75C17.25 13.8938 13.8919 17.25 9.75 17.25C5.60813 17.25 2.25 13.8938 2.25 9.75Z" fill="white"/>
</svg>
