<svg width="12" height="12" viewBox="0 0 12 12" fill="none" xmlns="http://www.w3.org/2000/svg">
    <path fill-rule="evenodd" clip-rule="evenodd" d="M7.42239 1.40363C8.29351 0.532125 9.70649 0.532125 10.5776 1.40363C11.4491 2.27475 11.4491 3.68738 10.5776 4.55888L4.65525 10.4813H10.875C11.082 10.4813 11.25 10.6489 11.25 10.8563C11.25 11.0633 11.082 11.2313 10.875 11.2313H1.125C0.918 11.2313 0.75 11.0633 0.75 10.8563V8.23126C0.75 8.13189 0.789386 8.03625 0.859886 7.96613L7.42239 1.40363ZM3.59475 10.4813L8.65725 5.41876L6.5625 3.32401L1.5 8.38651V10.4813H3.59475ZM7.09275 2.79376L9.1875 4.88851L10.0474 4.02863C10.6256 3.45 10.6256 2.51213 10.0474 1.93388C9.46876 1.35525 8.53124 1.35525 7.95261 1.93388L7.09275 2.79376Z" fill="black"/>
</svg>