<svg width="12" height="12" viewBox="0 0 12 12" fill="none" xmlns="http://www.w3.org/2000/svg">
    <path fill-rule="evenodd" clip-rule="evenodd" d="M3.75 1.875C3.75 1.25363 4.25362 0.75 4.875 0.75H7.125C7.74638 0.75 8.25 1.25363 8.25 1.875V2.25H10.875C11.082 2.25 11.25 2.418 11.25 2.625C11.25 2.832 11.082 3 10.875 3H10.125V9.375C10.125 10.4104 9.28537 11.25 8.25 11.25H3.75C2.71463 11.25 1.875 10.4104 1.875 9.375V3H1.125C0.918 3 0.75 2.832 0.75 2.625C0.75 2.418 0.918 2.25 1.125 2.25H3.75V1.875ZM4.5 2.25H7.5V1.875C7.5 1.668 7.332 1.5 7.125 1.5H4.875C4.668 1.5 4.5 1.668 4.5 1.875V2.25ZM2.625 3V9.375C2.625 9.99638 3.12862 10.5 3.75 10.5H8.25C8.87138 10.5 9.375 9.99638 9.375 9.375V3H2.625ZM6 4.125C6.207 4.125 6.375 4.293 6.375 4.5V9C6.375 9.207 6.207 9.375 6 9.375C5.793 9.375 5.625 9.207 5.625 9V4.5C5.625 4.293 5.793 4.125 6 4.125Z" fill="#1A1A1A"/>
</svg>
