<svg width="16" height="16" viewBox="0 0 16 16" fill="none" xmlns="http://www.w3.org/2000/svg">
<path d="M11.8439 6.10702C12.0605 5.8773 12.0502 5.51559 11.8211 5.29902C11.5914 5.08245 11.2297 5.09272 11.0131 5.32186L7.11079 9.45157L4.9868 7.20415C4.77023 6.97501 4.40851 6.96474 4.1788 7.18131C3.94965 7.39788 3.93938 7.75959 4.15595 7.98931L6.69536 10.6802C6.80336 10.7944 6.95364 10.8573 7.11079 10.8573C7.2685 10.8573 7.41881 10.7944 7.52624 10.6802L11.8439 6.10702Z" fill="#14988B"/>
<path fill-rule="evenodd" clip-rule="evenodd" d="M8 0C3.58171 0 0 3.58171 0 8C0 12.4171 3.58171 16 8 16C12.4183 16 16 12.4171 16 8C16 3.58171 12.4183 0 8 0ZM1.14286 8C1.14286 4.21314 4.21314 1.14286 8 1.14286C11.7869 1.14286 14.8571 4.21314 14.8571 8C14.8571 11.7886 11.7869 14.8571 8 14.8571C4.21314 14.8571 1.14286 11.7886 1.14286 8Z" fill="#14988B"/>
</svg>
