<svg xmlns="http://www.w3.org/2000/svg" width="20" height="20" viewBox="0 0 20 20" fill="none">
    <path fill-rule="evenodd" clip-rule="evenodd"
        d="M9.75 18.5C14.5825 18.5 18.5 14.5825 18.5 9.75C18.5 4.91751 14.5825 1 9.75 1C4.91751 1 1 4.91751 1 9.75C1 14.5825 4.91751 18.5 9.75 18.5ZM14.1793 7.04557C14.4299 7.28245 14.4412 7.67807 14.2043 7.92932L9.48183 12.9312C9.36433 13.0562 9.19992 13.1249 9.02742 13.1249C8.85555 13.1249 8.69118 13.0562 8.57305 12.9312L5.79557 9.98808C5.5587 9.73683 5.56993 9.3412 5.82056 9.10433C6.07181 8.86745 6.46743 8.87869 6.70431 9.12931L9.02742 11.5874L13.2956 7.07056C13.5324 6.81993 13.9281 6.8087 14.1793 7.04557Z"
        fill="white" />
</svg>