<svg width="10" height="10" viewBox="0 0 10 10" fill="none" xmlns="http://www.w3.org/2000/svg">
    <g clip-path="url(#clip0_1417_943)">
        <path
            d="M9.16655 2.12219C8.79433 1.35831 7.7221 0.733305 6.47488 1.09719C5.8789 1.26934 5.35891 1.63852 4.99988 2.14442C4.64085 1.63852 4.12087 1.26934 3.52488 1.09719C2.27488 0.738861 1.20544 1.35831 0.833215 2.12219C0.310993 3.19164 0.52766 4.39442 1.47766 5.69719C2.2221 6.71664 3.28599 7.74997 4.83044 8.94997C4.87925 8.98804 4.93937 9.00871 5.00127 9.00871C5.06317 9.00871 5.1233 8.98804 5.1721 8.94997C6.71377 7.75275 7.78044 6.72775 8.52488 5.69719C9.4721 4.39442 9.68877 3.19164 9.16655 2.12219Z"
            fill="white" />
    </g>
    <defs>
        <clipPath id="clip0_1417_943">
            <rect width="10" height="10" fill="white" />
        </clipPath>
    </defs>
</svg>
    