<svg width="18" height="20" viewBox="0 0 18 20" fill="none" xmlns="http://www.w3.org/2000/svg">
    <path fill-rule="evenodd" clip-rule="evenodd"
        d="M16.7919 5.0827L10.8725 0.597389C9.78524 -0.22546 8.21477 -0.195341 7.12752 0.669674L1.08725 5.56822C0.362416 6.1453 0 7.01754 0 7.93918V16.9604C0 18.6386 1.32886 20 3.02013 20H4.95302H7.00671H10.9933H13.047H15.1007C16.6711 20 18 18.6386 18 16.9604V7.52595C18 6.56214 17.6376 5.65616 16.7919 5.0827ZM13.0473 17.9736H15.101C15.5842 17.9736 16.0674 17.5194 16.0674 16.9604V7.52598C16.0674 7.20431 15.9466 6.90312 15.5842 6.71157L9.66475 2.22626C9.30234 1.95157 8.81912 1.96121 8.4567 2.25035L2.41643 7.14889C2.17482 7.34166 2.05402 7.632 2.05402 7.93921V16.9604C2.05402 17.5194 2.41643 17.9736 3.02046 17.9736H4.95335V14.934C4.95335 12.6944 6.76543 10.88 9.06073 10.88C11.2352 10.88 13.0473 12.6944 13.0473 14.934V17.9736ZM7.00665 17.9735H10.9932V14.9339C10.9932 13.8135 10.1476 12.9063 9.06034 12.9063C7.9731 12.9063 7.00665 13.8135 7.00665 14.9339V17.9735Z"
        fill="#D9D9D9" />
</svg>