<svg width="20" height="20" viewBox="0 0 20 20" fill="none" xmlns="http://www.w3.org/2000/svg">
    <path fill-rule="evenodd" clip-rule="evenodd"
          d="M9.0625 2.5C5.43813 2.5 2.5 5.43813 2.5 9.0625C2.5 12.6869 5.43813 15.625 9.0625 15.625C10.8731 15.625 12.5113 14.8925 13.6994 13.7062C14.89 12.5175 15.625 10.8763 15.625 9.0625C15.625 5.43813 12.6869 2.5 9.0625 2.5ZM1.25 9.0625C1.25 4.7475 4.7475 1.25 9.0625 1.25C13.3775 1.25 16.875 4.7475 16.875 9.0625C16.875 10.9963 16.1719 12.7669 15.0081 14.1306L18.5662 17.6825C18.8106 17.9262 18.8113 18.3225 18.5675 18.5662C18.3238 18.8106 17.9275 18.8113 17.6838 18.5675L14.1238 15.0144C12.7606 16.1744 10.9931 16.875 9.0625 16.875C4.7475 16.875 1.25 13.3775 1.25 9.0625Z"
          fill="white"/>
</svg>
